<?xml version="1.0" encoding="iso-8859-1"?>
<!-- Generator: Adobe Illustrator 19.0.0, SVG Export Plug-In . SVG Version: 6.00 Build 0)  -->
<svg version="1.1" id="Warstwa_1" xmlns="http://www.w3.org/2000/svg" xmlns:xlink="http://www.w3.org/1999/xlink" x="0px" y="0px"
	 viewBox="0 0 298 285" style="enable-background:new 0 0 298 285;" xml:space="preserve">
<g>
	<path style="fill-rule:evenodd;clip-rule:evenodd;fill:#FFC63E;" d="M149,7.406L149,7.406c76.585,0,139.246,60.346,139.246,134.104
		c0,73.756-62.661,134.102-139.246,134.102S9.754,215.265,9.754,141.509C9.754,67.751,72.415,7.406,149,7.406"/>
	<path style="fill:none;stroke:#FFFFFF;stroke-width:11.0871;stroke-miterlimit:22.926;" d="M149,7.406L149,7.406
		c76.585,0,139.246,60.346,139.246,134.104c0,73.756-62.661,134.102-139.246,134.102S9.754,215.265,9.754,141.509
		C9.754,67.751,72.415,7.406,149,7.406z"/>
	<path style="fill-rule:evenodd;clip-rule:evenodd;fill:#FAA21B;" d="M9.754,75.397l92.858-0.124
		c6.857,0,12.475,6.072,12.475,12.268v124.252l-0.084,11.317H22.229c-6.568,0-12.475-5.329-12.475-11.317V87.541V75.397z"/>
	<path style="fill:none;stroke:#FFFFFF;stroke-width:5.3895;stroke-miterlimit:22.926;" d="M9.754,75.397l92.858-0.124
		c6.857,0,12.475,6.072,12.475,12.268v124.252l-0.084,11.317H22.229c-6.568,0-12.475-5.329-12.475-11.317V87.541V75.397z"/>
	<path style="fill-rule:evenodd;clip-rule:evenodd;fill:#2E3192;" d="M21.32,206.63V91.259h74.725c2.065,0,3.179-0.247,5.907,1.445
		c1.692,1.034,2.519,4.257,2.519,6.237v5.907H36.605v35.607h63.612v13.591H36.605v38.993h70.385v13.591H21.32z"/>
	<path style="fill-rule:evenodd;clip-rule:evenodd;fill:#A5C3D2;" d="M144.167,7.406h90.67c8.384,0,16.646,7.724,16.646,14.539
		v114.173v13.631H144.167v-13.631V20.913V7.406z"/>
	<path style="fill:none;stroke:#FFFFFF;stroke-width:5.3895;stroke-miterlimit:22.926;" d="M144.167,7.406h90.67
		c8.384,0,16.646,7.724,16.646,14.539v114.173v13.631H144.167v-13.631V20.913V7.406z"/>
	<path style="fill:#2E3192;" d="M170.475,122.804h28.628c4.922,0,8.374-0.188,10.382-0.561c3.477-0.616,6.418-1.66,8.775-3.131
		c2.354-1.471,4.281-3.612,5.804-6.422c1.525-2.81,2.276-6.045,2.276-9.711c0-4.308-1.097-8.028-3.317-11.211
		c-2.196-3.184-5.245-5.405-9.15-6.69c-3.88-1.283-9.498-1.926-16.802-1.926h-26.596V122.804z M170.475,69.669h24.857
		c6.741,0,11.583-0.454,14.499-1.338c3.88-1.15,6.796-3.078,8.749-5.751c1.954-2.677,2.945-6.021,2.945-10.06
		c0-3.825-0.911-7.197-2.757-10.087c-1.819-2.916-4.443-4.922-7.84-5.992c-3.397-1.07-9.23-1.606-17.471-1.606h-22.982V69.669z
		 M155.225,136.288V21.351h43.13c8.775,0,15.811,1.148,21.136,3.477c5.296,2.327,9.445,5.912,12.441,10.754
		c3.025,4.817,4.523,9.874,4.523,15.171c0,4.897-1.338,9.524-3.988,13.859c-2.648,4.334-6.661,7.84-12.039,10.515
		c6.958,2.032,12.308,5.513,16.028,10.433c3.745,4.897,5.618,10.703,5.618,17.391c0,5.407-1.15,10.408-3.424,15.037
		c-2.274,4.627-5.083,8.186-8.429,10.701c-3.344,2.489-7.545,4.388-12.576,5.673c-5.055,1.285-11.235,1.926-18.566,1.926H155.225z"
		/>
	<path style="fill-rule:evenodd;clip-rule:evenodd;fill:#FFC63E;" d="M21.951,223.275h253.89c6.709,0,12.197,5.353,12.197,11.897
		v30.526c0,6.543-5.488,11.897-12.197,11.897H21.951c-6.709,0-12.197-5.353-12.197-11.897v-30.526
		C9.754,228.628,15.242,223.275,21.951,223.275"/>
	<path style="fill:none;stroke:#FFFFFF;stroke-width:5.3895;stroke-miterlimit:22.926;" d="M21.951,223.275h253.89
		c6.709,0,12.197,5.353,12.197,11.897v30.526c0,6.543-5.488,11.897-12.197,11.897H21.951c-6.709,0-12.197-5.353-12.197-11.897
		v-30.526C9.754,228.628,15.242,223.275,21.951,223.275z"/>
	<polygon style="fill:#2E3192;" points="32.121,268.718 21.492,230.166 30.899,230.166 37.625,256.648 45.875,230.166 
		56.757,230.166 64.65,257.098 71.534,230.166 80.72,230.166 69.829,268.718 60.052,268.718 51.138,239.894 42.161,268.718 	"/>
	<path style="fill:#2E3192;" d="M90.056,268.718h-8.652v-27.944h8.021v3.966c1.378-1.876,2.62-3.104,3.726-3.688
		c1.105-0.582,2.357-0.869,3.757-0.869c1.979,0,3.884,0.466,5.715,1.39l-2.684,6.443c-1.462-0.806-2.821-1.211-4.072-1.211
		c-1.221,0-2.253,0.287-3.093,0.854c-0.844,0.574-1.508,1.595-1.99,3.085c-0.485,1.49-0.726,4.614-0.726,9.361V268.718z"/>
	<path style="fill:#2E3192;" d="M110.085,254.8c0,2.774,0.766,4.899,2.304,6.37c1.546,1.481,3.443,2.217,5.703,2.217
		c2.253,0,4.146-0.736,5.671-2.217c1.528-1.471,2.296-3.616,2.296-6.424c0-2.739-0.768-4.848-2.296-6.319
		c-1.525-1.479-3.418-2.217-5.671-2.217c-2.26,0-4.158,0.738-5.703,2.217C110.851,249.899,110.085,252.027,110.085,254.8
		 M101.18,254.405c0-2.458,0.705-4.836,2.125-7.133c1.422-2.308,3.431-4.057,6.03-5.268c2.601-1.213,5.494-1.821,8.703-1.821
		c4.958,0,9.009,1.371,12.176,4.118c3.167,2.755,4.747,6.218,4.747,10.418c0,4.237-1.599,7.745-4.789,10.526
		c-3.198,2.783-7.218,4.173-12.072,4.173c-2.998,0-5.861-0.584-8.585-1.741c-2.717-1.156-4.789-2.854-6.211-5.097
		C101.885,260.346,101.18,257.618,101.18,254.405"/>
	<path style="fill:#2E3192;" d="M169.682,249.066l-8.524,1.291c-0.285-1.445-0.937-2.528-1.958-3.266
		c-1.021-0.726-2.336-1.093-3.958-1.093c-2.156,0-3.882,0.637-5.165,1.911c-1.285,1.274-1.928,3.403-1.928,6.388
		c0,3.323,0.654,5.663,1.958,7.038c1.306,1.371,3.053,2.055,5.241,2.055c1.643,0,2.988-0.405,4.03-1.203
		c1.053-0.8,1.789-2.171,2.222-4.127l8.523,1.238c-0.884,3.338-2.578,5.861-5.082,7.564c-2.506,1.705-5.863,2.559-10.083,2.559
		c-4.777,0-8.599-1.293-11.441-3.869c-2.85-2.584-4.272-6.156-4.272-10.724c0-4.62,1.432-8.211,4.283-10.787
		c2.854-2.576,6.715-3.857,11.587-3.857c3.979,0,7.148,0.734,9.503,2.198C166.965,243.843,168.651,246.068,169.682,249.066"/>
	<rect x="179.416" y="230.166" style="fill:#2E3192;" width="8.65" height="38.552"/>
	<path style="fill:#2E3192;" d="M216.281,255.367c-1.105,0.314-2.861,0.69-5.272,1.129c-2.401,0.441-3.979,0.871-4.715,1.285
		c-1.125,0.69-1.694,1.549-1.694,2.601c0,1.042,0.451,1.93,1.357,2.682c0.905,0.755,2.051,1.131,3.45,1.131
		c1.557,0,3.053-0.439,4.473-1.31c1.042-0.673,1.738-1.481,2.065-2.451c0.221-0.627,0.335-1.829,0.335-3.599V255.367z
		 M204.664,249.388l-7.831-1.182c0.884-2.73,2.409-4.749,4.566-6.059c2.158-1.312,5.367-1.964,9.619-1.964
		c3.863,0,6.747,0.384,8.642,1.165c1.882,0.781,3.22,1.768,3.987,2.969c0.77,1.203,1.158,3.403,1.158,6.614l-0.125,8.616
		c0,2.449,0.137,4.262,0.411,5.428c0.274,1.167,0.789,2.414,1.546,3.743h-8.585c-0.222-0.485-0.506-1.202-0.833-2.154
		c-0.137-0.439-0.241-0.726-0.304-0.861c-1.475,1.238-3.053,2.162-4.737,2.781s-3.473,0.933-5.376,0.933
		c-3.359,0-6.011-0.781-7.947-2.342c-1.937-1.553-2.905-3.526-2.905-5.912c0-1.572,0.441-2.981,1.325-4.218
		c0.886-1.228,2.116-2.181,3.717-2.836c1.587-0.656,3.884-1.228,6.88-1.722c4.042-0.646,6.853-1.257,8.41-1.814v-0.743
		c0-1.435-0.411-2.46-1.23-3.078c-0.833-0.61-2.39-0.916-4.675-0.916c-1.546,0-2.745,0.26-3.61,0.789
		C205.894,247.145,205.2,248.07,204.664,249.388"/>
	<polygon style="fill:#2E3192;" points="238.142,268.718 227.786,240.774 236.204,240.774 242.341,259.091 247.993,240.774 
		256.348,240.774 261.789,259.091 268.051,240.774 276.596,240.774 266.072,268.718 257.759,268.718 252.128,250.743 
		246.573,268.718 	"/>
	<polygon style="fill-rule:evenodd;clip-rule:evenodd;fill:#A7A9AC;" points="144.167,149.749 251.729,149.749 189.315,223.111 
		144.167,223.111 144.167,210.438 144.167,162.421 	"/>
	<polygon style="fill:none;stroke:#FFFFFF;stroke-width:5.3895;stroke-miterlimit:22.926;" points="144.167,149.749 
		251.729,149.749 189.315,223.111 144.167,223.111 144.167,210.438 144.167,162.421 	"/>
	<rect x="121.476" y="92.192" style="fill:#2E3192;" width="14.127" height="114.937"/>
	<path style="fill-rule:evenodd;clip-rule:evenodd;fill:#47A5AE;" d="M251.446,149.756l-62.097,73.37h87.229
		c3.498,0,6.65-2.99,8.68-5.538c1.943-2.426,2.935-5.821,2.935-8.935v-58.897H251.446z"/>
	<path style="fill:none;stroke:#FFFFFF;stroke-width:5.3895;stroke-miterlimit:22.926;" d="M251.446,149.756l-62.097,73.37h87.229
		c3.498,0,6.65-2.99,8.68-5.538c1.943-2.426,2.935-5.821,2.935-8.935v-58.897H251.446z"/>
	<path style="fill-rule:evenodd;clip-rule:evenodd;fill:#00A651;" d="M9.872,75.238l75.256,0.122L46.099,7.412h-25.29
		c-2.968,0-5.774,2.654-7.562,5.023c-1.992,2.572-3.414,6.002-3.414,9.228L9.872,75.238z"/>
	<path style="fill:none;stroke:#FFFFFF;stroke-width:5.3895;stroke-miterlimit:22.926;" d="M9.872,75.238l75.256,0.122L46.099,7.412
		h-25.29c-2.968,0-5.774,2.654-7.562,5.023c-1.992,2.572-3.414,6.002-3.414,9.228L9.872,75.238z"/>
	<rect x="262.718" y="51.893" style="fill-rule:evenodd;clip-rule:evenodd;fill:#2E3192;" width="14.211" height="84.225"/>
	<polygon style="fill-rule:evenodd;clip-rule:evenodd;fill:#ED1C24;" points="262.717,21.946 269.491,21.986 276.928,21.946 
		276.928,28.761 276.928,39.13 262.717,39.13 	"/>
	
		<line style="fill:none;stroke:#000000;stroke-width:0.6844;stroke-miterlimit:22.926;" x1="115.004" y1="243.888" x2="115.004" y2="246.202"/>
	<polygon style="fill-rule:evenodd;clip-rule:evenodd;fill:#2E3192;" points="193.156,233.685 173.743,251.198 173.743,257.23 
		192.786,240.583 	"/>
</g>
</svg>
